{"title":"Bram Stoker's Dracula 1992 DVDrip English Klam","uid":6429512,"size":1675598242,"categoryP":"video","categoryS":"movies","magnet":"?xt=urn:btih:51ffd9c58fd85c0d9595cdd840428b471c41e8ec&amp;dn=Bram+Stoker%5C%27s+Dracula+1992+DVDrip+English+Klam&amp;tr=udp%3A%2F%2Ftracker.openbittorrent.com%3A80&amp;tr=udp%3A%2F%2Fopen.demonii.com%3A1337&amp;tr=udp%3A%2F%2Ftracker.coppersurfer.tk%3A6969&amp;tr=udp%3A%2F%2Fexodus.desync.com%3A6969","seeders":0,"leechers":1,"uploader":"Klambake","files":5,"time":1306594694,"description":"With:Gary Oldman, Winona Ryder and Anthony Hopkins\n\nDe jonge advocaat Harker krijgt de opdracht om een klant te bezoeken in Oost Europa. Hij wordt daar gevangen gehouden door de graaf en vampier Dracula die afreist naar Londen geobsedeerd door een foto van Harkers verloofde Mina. In Londen begint hij de jacht op Mina waarbij hij o.a. Mina's beste vriendin Lucy tot slachtoffer maakt. Lucy's vrienden slaan de handen ineen om deze vampier weg te jagen.\n\nThe vampire comes to England to seduce a visitor's fiancÃƒÂ©e and inflict havoc in the foreign land. \n\nGeneral:\n\nComplete name                    : Bram Stoker's Dracula\\Bram Stoker's Dracula.avi\nFormat                           : AVI\nFormat/Info                      : Audio Video Interleave\nFile size                        : 1.56 GiB\nDuration                         : 2h 2mn\nOverall bit rate                 : 1 827 Kbps\n\nVideo:\n\nFormat                           : MPEG-4 Visual\nFormat profile                   : Simple@L3\nFormat settings, BVOP            : No\nFormat settings, QPel            : No\nFormat settings, GMC             : No warppoints\nFormat settings, Matrix          : Default (H.263)\nCodec ID                         : XVID\nCodec ID/Hint                    : XviD\nDuration                         : 2h 2mn\nBit rate                         : 1 433 Kbps\nWidth                            : 652 pixels\nHeight                           : 352 pixels\nDisplay aspect ratio             : 1.852\nFrame rate                       : 25.000 fps\nColor space                      : YUV\nChroma subsampling               : 4:2:0\nBit depth                        : 8 bits\nScan type                        : Progressive\nBits/(Pixel*Frame)               : 0.250\nStream size                      : 1.22 GiB (78%)\nWriting library                  : XviD 1.1.2 (UTC 2006-11-01)\n\nAudio:\n\nFormat                           : AC-3\nFormat/Info                      : Audio Coding 3\nMode extension                   : CM (complete main)\nCodec ID                         : 2000\nDuration                         : 2h 2mn\nBit rate mode                    : Constant\nBit rate                         : 384 Kbps\nChannel(s)                       : 6 channels\nChannel positions                : Front: L C R, Side: L R, LFE\nSampling rate                    : 48.0 KHz\nBit depth                        : 16 bits\nStream size                      : 336 MiB (21%)\nAlignment                        : Aligned on interleaves\nInterleave, duration             : 32 ms (0.80 video frame)\nInterleave, preload duration     : 288 ms\n","torrent":{"xt":"urn:btih:51ffd9c58fd85c0d9595cdd840428b471c41e8ec","amp;dn":"Bram+Stoker%5C%27s+Dracula+1992+DVDrip+English+Klam","amp;tr":["udp%3A%2F%2Ftracker.openbittorrent.com%3A80","udp%3A%2F%2Fopen.demonii.com%3A1337","udp%3A%2F%2Ftracker.coppersurfer.tk%3A6969","udp%3A%2F%2Fexodus.desync.com%3A6969"],"infoHash":"51ffd9c58fd85c0d9595cdd840428b471c41e8ec","infoHashBuffer":{"type":"Buffer","data":[81,255,217,197,143,216,92,13,149,149,205,216,64,66,139,71,28,65,232,236]},"announce":[],"urlList":[]}}